<?xml version="1.0" encoding="utf-8"?>
<!-- Generator: Adobe Illustrator 24.0.2, SVG Export Plug-In . SVG Version: 6.00 Build 0)  -->
<!DOCTYPE svg PUBLIC "-//W3C//DTD SVG 1.1//EN" "http://www.w3.org/Graphics/SVG/1.1/DTD/svg11.dtd" [
	<!ENTITY ns_extend "http://ns.adobe.com/Extensibility/1.0/">
	<!ENTITY ns_ai "http://ns.adobe.com/AdobeIllustrator/10.0/">
	<!ENTITY ns_graphs "http://ns.adobe.com/Graphs/1.0/">
	<!ENTITY ns_vars "http://ns.adobe.com/Variables/1.0/">
	<!ENTITY ns_imrep "http://ns.adobe.com/ImageReplacement/1.0/">
	<!ENTITY ns_sfw "http://ns.adobe.com/SaveForWeb/1.0/">
	<!ENTITY ns_custom "http://ns.adobe.com/GenericCustomNamespace/1.0/">
	<!ENTITY ns_adobe_xpath "http://ns.adobe.com/XPath/1.0/">
]>
<svg version="1.1" id="Calque_1" xmlns:x="&ns_extend;" xmlns:i="&ns_ai;" xmlns:graph="&ns_graphs;"
	 xmlns="http://www.w3.org/2000/svg" xmlns:xlink="http://www.w3.org/1999/xlink" x="0px" y="0px" width="329.1px" height="228.5px"
	 viewBox="0 0 329.1 228.5" style="enable-background:new 0 0 329.1 228.5;" xml:space="preserve">
<style type="text/css">
	.st0{fill:#FFFFFF;}
	.st1{clip-path:url(#SVGID_2_);}
	.st2{fill:none;stroke:#000000;stroke-width:0.8;stroke-linecap:square;}
	.st3{clip-path:url(#SVGID_4_);}
	.st4{clip-path:url(#SVGID_6_);}
	.st5{clip-path:url(#SVGID_8_);}
	.st6{clip-path:url(#SVGID_10_);}
	.st7{clip-path:url(#SVGID_12_);}
	.st8{clip-path:url(#SVGID_14_);}
	.st9{clip-path:url(#SVGID_16_);}
	.st10{clip-path:url(#SVGID_18_);}
	.st11{clip-path:url(#SVGID_20_);}
	.st12{clip-path:url(#SVGID_22_);}
	.st13{clip-path:url(#SVGID_24_);}
	.st14{clip-path:url(#SVGID_26_);}
</style>
<metadata>
	<sfw  xmlns="&ns_sfw;">
		<slices></slices>
		<sliceSourceBounds  bottomLeftOrigin="true" height="218.6" width="317.3" x="63.5" y="35.6"></sliceSourceBounds>
	</sfw>
</metadata>
<g id="axes_1">
	<g id="patch_2">
		<path class="st0" d="M8.4,54.3h50.9V7.1H8.4V54.3z"/>
	</g>
	<g>
		<defs>
			<rect id="SVGID_1_" x="8.4" y="7.1" width="50.9" height="47.3"/>
		</defs>
		<clipPath id="SVGID_2_">
			<use xlink:href="#SVGID_1_"  style="overflow:visible;"/>
		</clipPath>
		<g class="st1">
			
				<image style="overflow:visible;enable-background:new    ;" width="51" height="48" id="imagebb6926c274" xlink:href="5841178D.png"  transform="matrix(1 0 0 -1 8.4167 54.3352)">
			</image>
		</g>
	</g>
	<g id="patch_3">
		<path class="st2" d="M8.4,54.3V7.1"/>
	</g>
	<g id="patch_4">
		<path class="st2" d="M59.3,54.3V7.1"/>
	</g>
	<g id="patch_5">
		<path class="st2" d="M8.4,54.3h50.9"/>
	</g>
	<g id="patch_6">
		<path class="st2" d="M8.4,7.1h50.9"/>
	</g>
</g>
<g id="axes_2">
	<g id="patch_7">
		<path class="st0" d="M95.8,54.3h50.9V7.1H95.8V54.3z"/>
	</g>
	<g>
		<defs>
			<rect id="SVGID_3_" x="95.8" y="7.1" width="50.9" height="47.3"/>
		</defs>
		<clipPath id="SVGID_4_">
			<use xlink:href="#SVGID_3_"  style="overflow:visible;"/>
		</clipPath>
		<g class="st3">
			
				<image style="overflow:visible;enable-background:new    ;" width="51" height="48" id="image0a5fdcd206" xlink:href="5841178F.png"  transform="matrix(1 0 0 -1 95.7559 54.3352)">
			</image>
		</g>
	</g>
	<g id="patch_8">
		<path class="st2" d="M95.8,54.3V7.1"/>
	</g>
	<g id="patch_9">
		<path class="st2" d="M146.7,54.3V7.1"/>
	</g>
	<g id="patch_10">
		<path class="st2" d="M95.8,54.3h50.9"/>
	</g>
	<g id="patch_11">
		<path class="st2" d="M95.8,7.1h50.9"/>
	</g>
</g>
<g id="axes_3">
	<g id="patch_12">
		<path class="st0" d="M183.1,54.3H234V7.1h-50.9V54.3z"/>
	</g>
	<g>
		<defs>
			<rect id="SVGID_5_" x="183.1" y="7.1" width="50.9" height="47.3"/>
		</defs>
		<clipPath id="SVGID_6_">
			<use xlink:href="#SVGID_5_"  style="overflow:visible;"/>
		</clipPath>
		<g class="st4">
			
				<image style="overflow:visible;enable-background:new    ;" width="51" height="48" id="image0bf2ee48f9" xlink:href="5841178A.png"  transform="matrix(1 0 0 -1 183.095 54.3352)">
			</image>
		</g>
	</g>
	<g id="patch_13">
		<path class="st2" d="M183.1,54.3V7.1"/>
	</g>
	<g id="patch_14">
		<path class="st2" d="M234,54.3V7.1"/>
	</g>
	<g id="patch_15">
		<path class="st2" d="M183.1,54.3H234"/>
	</g>
	<g id="patch_16">
		<path class="st2" d="M183.1,7.1H234"/>
	</g>
</g>
<g id="axes_4">
	<g id="patch_17">
		<path class="st0" d="M270.4,54.3h50.9V7.1h-50.9V54.3z"/>
	</g>
	<g>
		<defs>
			<rect id="SVGID_7_" x="270.4" y="7.1" width="50.9" height="47.3"/>
		</defs>
		<clipPath id="SVGID_8_">
			<use xlink:href="#SVGID_7_"  style="overflow:visible;"/>
		</clipPath>
		<g class="st5">
			
				<image style="overflow:visible;enable-background:new    ;" width="51" height="48" id="image6a40db7f12" xlink:href="5841178B.png"  transform="matrix(1 0 0 -1 270.4341 54.3352)">
			</image>
		</g>
	</g>
	<g id="patch_18">
		<path class="st2" d="M270.4,54.3V7.1"/>
	</g>
	<g id="patch_19">
		<path class="st2" d="M321.3,54.3V7.1"/>
	</g>
	<g id="patch_20">
		<path class="st2" d="M270.4,54.3h50.9"/>
	</g>
	<g id="patch_21">
		<path class="st2" d="M270.4,7.1h50.9"/>
	</g>
</g>
<g id="axes_5">
	<g id="patch_22">
		<path class="st0" d="M8.3,111.1h51.1V63.8H8.3V111.1z"/>
	</g>
	<g>
		<defs>
			<rect id="SVGID_9_" x="8.3" y="63.8" width="51.1" height="47.3"/>
		</defs>
		<clipPath id="SVGID_10_">
			<use xlink:href="#SVGID_9_"  style="overflow:visible;"/>
		</clipPath>
		<g class="st6">
			
				<image style="overflow:visible;enable-background:new    ;" width="52" height="48" id="imageeb1e3d4a77" xlink:href="58411795.png"  transform="matrix(1 0 0 -1 8.344 111.0587)">
			</image>
		</g>
	</g>
	<g id="patch_23">
		<path class="st2" d="M8.3,111.1V63.8"/>
	</g>
	<g id="patch_24">
		<path class="st2" d="M59.4,111.1V63.8"/>
	</g>
	<g id="patch_25">
		<path class="st2" d="M8.3,111.1h51.1"/>
	</g>
	<g id="patch_26">
		<path class="st2" d="M8.3,63.8h51.1"/>
	</g>
</g>
<g id="axes_6">
	<g id="patch_27">
		<path class="st0" d="M94.7,111.1h52.9V63.8H94.7V111.1z"/>
	</g>
	<g>
		<defs>
			<rect id="SVGID_11_" x="94.7" y="63.8" width="52.9" height="47.3"/>
		</defs>
		<clipPath id="SVGID_12_">
			<use xlink:href="#SVGID_11_"  style="overflow:visible;"/>
		</clipPath>
		<g class="st7">
			
				<image style="overflow:visible;enable-background:new    ;" width="53" height="48" id="image2c3ce88b6a" xlink:href="58411797.png"  transform="matrix(1 0 0 -1 94.7377 111.0587)">
			</image>
		</g>
	</g>
	<g id="patch_28">
		<path class="st2" d="M94.7,111.1V63.8"/>
	</g>
	<g id="patch_29">
		<path class="st2" d="M147.7,111.1V63.8"/>
	</g>
	<g id="patch_30">
		<path class="st2" d="M94.7,111.1h52.9"/>
	</g>
	<g id="patch_31">
		<path class="st2" d="M94.7,63.8h52.9"/>
	</g>
</g>
<g id="axes_7">
	<g id="patch_32">
		<path class="st0" d="M183,111.1h51.1V63.8H183V111.1z"/>
	</g>
	<g>
		<defs>
			<rect id="SVGID_13_" x="183" y="63.8" width="51.1" height="47.3"/>
		</defs>
		<clipPath id="SVGID_14_">
			<use xlink:href="#SVGID_13_"  style="overflow:visible;"/>
		</clipPath>
		<g class="st8">
			
				<image style="overflow:visible;enable-background:new    ;" width="52" height="48" id="image4f008d4824" xlink:href="5841179A.png"  transform="matrix(1 0 0 -1 183.0223 111.0587)">
			</image>
		</g>
	</g>
	<g id="patch_33">
		<path class="st2" d="M183,111.1V63.8"/>
	</g>
	<g id="patch_34">
		<path class="st2" d="M234.1,111.1V63.8"/>
	</g>
	<g id="patch_35">
		<path class="st2" d="M183,111.1h51.1"/>
	</g>
	<g id="patch_36">
		<path class="st2" d="M183,63.8h51.1"/>
	</g>
</g>
<g id="axes_8">
	<g id="patch_37">
		<path class="st0" d="M268.3,111.1h55.1V63.8h-55.1V111.1z"/>
	</g>
	<g>
		<defs>
			<rect id="SVGID_15_" x="268.3" y="63.8" width="55.1" height="47.3"/>
		</defs>
		<clipPath id="SVGID_16_">
			<use xlink:href="#SVGID_15_"  style="overflow:visible;"/>
		</clipPath>
		<g class="st9">
			
				<image style="overflow:visible;enable-background:new    ;" width="56" height="48" id="image1c71a818a8" xlink:href="5841179B.png"  transform="matrix(1 0 0 -1 268.313 111.0587)">
			</image>
		</g>
	</g>
	<g id="patch_38">
		<path class="st2" d="M268.3,111.1V63.8"/>
	</g>
	<g id="patch_39">
		<path class="st2" d="M323.5,111.1V63.8"/>
	</g>
	<g id="patch_40">
		<path class="st2" d="M268.3,111.1h55.1"/>
	</g>
	<g id="patch_41">
		<path class="st2" d="M268.3,63.8h55.1"/>
	</g>
</g>
<g id="axes_9">
	<g id="patch_42">
		<path class="st0" d="M8.4,167.8h50.9v-47.3H8.4V167.8z"/>
	</g>
	<g>
		<defs>
			<rect id="SVGID_17_" x="8.4" y="120.5" width="50.9" height="47.3"/>
		</defs>
		<clipPath id="SVGID_18_">
			<use xlink:href="#SVGID_17_"  style="overflow:visible;"/>
		</clipPath>
		<g class="st10">
			
				<image style="overflow:visible;enable-background:new    ;" width="51" height="48" id="imagee2575ae81e" xlink:href="5841179D.png"  transform="matrix(1 0 0 -1 8.4167 167.7822)">
			</image>
		</g>
	</g>
	<g id="patch_43">
		<path class="st2" d="M8.4,167.8v-47.3"/>
	</g>
	<g id="patch_44">
		<path class="st2" d="M59.3,167.8v-47.3"/>
	</g>
	<g id="patch_45">
		<path class="st2" d="M8.4,167.8h50.9"/>
	</g>
	<g id="patch_46">
		<path class="st2" d="M8.4,120.5h50.9"/>
	</g>
</g>
<g id="axes_10">
	<g id="patch_47">
		<path class="st0" d="M95.7,167.8h51.1v-47.3H95.7V167.8z"/>
	</g>
	<g>
		<defs>
			<rect id="SVGID_19_" x="95.7" y="120.5" width="51.1" height="47.3"/>
		</defs>
		<clipPath id="SVGID_20_">
			<use xlink:href="#SVGID_19_"  style="overflow:visible;"/>
		</clipPath>
		<g class="st11">
			
				<image style="overflow:visible;enable-background:new    ;" width="52" height="48" id="imageb500fc2e9d" xlink:href="C1686766.png"  transform="matrix(1 0 0 -1 95.6831 167.7822)">
			</image>
		</g>
	</g>
	<g id="patch_48">
		<path class="st2" d="M95.7,167.8v-47.3"/>
	</g>
	<g id="patch_49">
		<path class="st2" d="M146.7,167.8v-47.3"/>
	</g>
	<g id="patch_50">
		<path class="st2" d="M95.7,167.8h51.1"/>
	</g>
	<g id="patch_51">
		<path class="st2" d="M95.7,120.5h51.1"/>
	</g>
</g>
<g id="axes_11">
	<g id="patch_52">
		<path class="st0" d="M183,167.8h51.1v-47.3H183V167.8z"/>
	</g>
	<g>
		<defs>
			<rect id="SVGID_21_" x="183" y="120.5" width="51.1" height="47.3"/>
		</defs>
		<clipPath id="SVGID_22_">
			<use xlink:href="#SVGID_21_"  style="overflow:visible;"/>
		</clipPath>
		<g class="st12">
			
				<image style="overflow:visible;enable-background:new    ;" width="52" height="48" id="image2da41578e2" xlink:href="C1686761.png"  transform="matrix(1 0 0 -1 183.0223 167.7822)">
			</image>
		</g>
	</g>
	<g id="patch_53">
		<path class="st2" d="M183,167.8v-47.3"/>
	</g>
	<g id="patch_54">
		<path class="st2" d="M234.1,167.8v-47.3"/>
	</g>
	<g id="patch_55">
		<path class="st2" d="M183,167.8h51.1"/>
	</g>
	<g id="patch_56">
		<path class="st2" d="M183,120.5h51.1"/>
	</g>
</g>
<g id="axes_12">
	<g id="patch_57">
		<path class="st0" d="M270.4,167.8h51.1v-47.3h-51.1V167.8z"/>
	</g>
	<g>
		<defs>
			<rect id="SVGID_23_" x="270.4" y="120.5" width="51.1" height="47.3"/>
		</defs>
		<clipPath id="SVGID_24_">
			<use xlink:href="#SVGID_23_"  style="overflow:visible;"/>
		</clipPath>
		<g class="st13">
			
				<image style="overflow:visible;enable-background:new    ;" width="52" height="48" id="image3e031327b1" xlink:href="C1686762.png"  transform="matrix(1 0 0 -1 270.3614 167.7822)">
			</image>
		</g>
	</g>
	<g id="patch_58">
		<path class="st2" d="M270.4,167.8v-47.3"/>
	</g>
	<g id="patch_59">
		<path class="st2" d="M321.4,167.8v-47.3"/>
	</g>
	<g id="patch_60">
		<path class="st2" d="M270.4,167.8h51.1"/>
	</g>
	<g id="patch_61">
		<path class="st2" d="M270.4,120.5h51.1"/>
	</g>
</g>
<g id="axes_13">
	<g id="patch_62">
		<path class="st0" d="M7.4,224.5h52.9v-47.3H7.4V224.5z"/>
	</g>
	<g>
		<defs>
			<rect id="SVGID_25_" x="7.4" y="177.2" width="52.9" height="47.3"/>
		</defs>
		<clipPath id="SVGID_26_">
			<use xlink:href="#SVGID_25_"  style="overflow:visible;"/>
		</clipPath>
		<g class="st14">
			
				<image style="overflow:visible;enable-background:new    ;" width="53" height="48" id="image35366ba898" xlink:href="C1686760.png"  transform="matrix(1 0 0 -1 7.3986 224.5056)">
			</image>
		</g>
	</g>
	<g id="patch_63">
		<path class="st2" d="M7.4,224.5v-47.3"/>
	</g>
	<g id="patch_64">
		<path class="st2" d="M60.3,224.5v-47.3"/>
	</g>
	<g id="patch_65">
		<path class="st2" d="M7.4,224.5h52.9"/>
	</g>
	<g id="patch_66">
		<path class="st2" d="M7.4,177.2h52.9"/>
	</g>
</g>
</svg>
