<?xml version="1.0" encoding="utf-8"?>
<!-- Generator: Adobe Illustrator 24.0.2, SVG Export Plug-In . SVG Version: 6.00 Build 0)  -->
<!DOCTYPE svg PUBLIC "-//W3C//DTD SVG 1.1//EN" "http://www.w3.org/Graphics/SVG/1.1/DTD/svg11.dtd" [
	<!ENTITY ns_extend "http://ns.adobe.com/Extensibility/1.0/">
	<!ENTITY ns_ai "http://ns.adobe.com/AdobeIllustrator/10.0/">
	<!ENTITY ns_graphs "http://ns.adobe.com/Graphs/1.0/">
	<!ENTITY ns_vars "http://ns.adobe.com/Variables/1.0/">
	<!ENTITY ns_imrep "http://ns.adobe.com/ImageReplacement/1.0/">
	<!ENTITY ns_sfw "http://ns.adobe.com/SaveForWeb/1.0/">
	<!ENTITY ns_custom "http://ns.adobe.com/GenericCustomNamespace/1.0/">
	<!ENTITY ns_adobe_xpath "http://ns.adobe.com/XPath/1.0/">
]>
<svg version="1.1" id="Calque_1" xmlns:x="&ns_extend;" xmlns:i="&ns_ai;" xmlns:graph="&ns_graphs;"
	 xmlns="http://www.w3.org/2000/svg" xmlns:xlink="http://www.w3.org/1999/xlink" x="0px" y="0px" width="241.8px" height="187.8px"
	 viewBox="0 0 241.8 187.8" style="enable-background:new 0 0 241.8 187.8;" xml:space="preserve">
<metadata>
	<sfw  xmlns="&ns_sfw;">
		<slices></slices>
		<sliceSourceBounds  bottomLeftOrigin="true" height="160" width="203" x="283.5" y="310.9"></sliceSourceBounds>
	</sfw>
</metadata>
<view  preserveAspectRatio="xMidYMid meet" viewBox="0.0 0.0 864.0 592.0" viewTarget="group0" zoomAndPan="magnify"></view>
<g>
	<path d="M78.4,33l-2.1,0.8L73,35.5l-3.3,2.1L69,38.4L68.6,39l0,0.6l0.3,0.5l1,1l6.7,2.4l2.7,0.8l5.6,1.3l7.1,1.2l11.8,0.4l8.8,1
		l14.7,1.1l8.1,0.3l10.5-0.1l12.2-0.9l9-1l8.8-1.3l11.6-2.3l1.1-0.5l1-1.1l0.8-1.7l-0.2-0.4l-1.8-1.5l-2-1.2l-3.5-1.6l-3.1-0.8
		l-5.1-0.7l-0.5-0.3l-0.2-0.6l0.2-0.6l0.5-0.4l1,0l5.4,0.8l2,0.5l2.6,1l1.6,0.9l3.1,2l1.9,1.7l0.4,1.2l-0.5,1.7l-0.7,1.2l-1.2,1.3
		l-1.3,0.9l-1.8,0.6l-10.2,2l-11.7,1.6l-6.3,0.7l-10,0.8l-12,0.3l-9.6-0.3l-15.4-1.1l-8.5-1l-9.6-0.2l-2.5-0.2l-6.4-1.1l-6.3-1.4
		l-8.3-2.7l-1-0.5l-1.1-0.8l-0.6-0.6L67,40.7l-0.3-1l0-0.6l0.3-1.2l0.4-0.6l1.8-1.5l2.9-1.8l2-1.1l1.9-0.8l1.8-0.5l1.5,0.1l0.8,0.6
		L78.4,33z"/>
	<path d="M91.4,34.1l-1.6,0.1l-0.9,0.2l-3.5,1.4l-2,1.2l1,0.7l3.1,1.3l4.1,0.9l2.2,0.7l4.6,0.7l5.5,1.2l9.4,1.3l7.4,0.1l10.8,0.9
		l14-0.1l7.5-0.5l5.4,0.3l9.3-1.1l2.6-0.5l4.4-1.3l3.3-1.6l0.3-0.4l0-0.5l-0.7-1.1l-3.2-0.9l-2.4-0.3l-0.7,0.3l-1.1,0.7l-2.3,2.2
		l-0.8,0.1l-0.7-0.5l-1-1.2l-1.1-0.5l-2-0.6l-2.3-1.4l-1.7-0.7l-0.5-0.3l-0.2-0.6l0.2-0.8l0.7-0.5l8.2-2.8l5.7-1.7l4.1-0.6l1.5-0.5
		l0.6,0l0.7,0.5l0.2,0.6l-0.2,0.6l-2.1,3.7l-2,2l-0.3,0l-0.4-0.3l-0.2-0.7l0.2-0.7l1.3-1.7l0.8-1.4l-3.9,0.6l-5.5,1.6l-6.3,2.2
		l1.8,1.1l2.7,0.9l1.4,0.9l0.6,0.6l2.3-1.9l1-0.6l0.6-0.2l3.1,0.2l3.1,0.8l0.9,0.4l1,0.9l0.8,1.6l0.1,0.9l-0.4,1.2l-1,0.9l-2.5,1.3
		l-1.5,0.6l-3.8,1.1l-2.2,0.4l-9.7,1.2l-1.7,0.1l-5.1-0.3l-6.5,0.5l-13.3,0.2l-5.8-0.3l-6.8-0.6l-6.7-0.1l-10.1-1.4l-5.5-1.2
		l-4.4-0.6l-2.4-0.7l-3.3-0.7l-3.6-1.4L81.5,38l-0.3-0.8l0.2-1l1.1-1l1.4-0.9l1.7-0.9l1.9-0.7l-4.2-1.2l-7,2.2l-1.3,0.2l-0.5-0.3
		l-0.2-0.6l0.3-0.3l0.6-0.4l7.2-2.5l1.3-0.1l4.3,1.2l2.7,0.4l1.4,0.6l0.9,0.6l0.2,0.8l-0.2,0.6l-0.5,0.4L91.4,34.1z"/>
	<path d="M92,84.9l0.2,2.4l-0.9,10.1l-0.2,5.1l-0.8,6.3l0,6.5l-0.3,1.8l-0.5,0.4l-0.5,0l-0.5-0.4l-0.2-0.7l0.1-7.3l0.8-6.5l0.2-5.1
		l0.9-9.5l0-1.3l-0.3-2.4L92,84.9z"/>
	<path d="M74,111.9l-6.9-1.8l-0.8-0.3l-1-0.8l-0.2-0.8l0.3-0.8l0.6-0.7l8.4-6.6l-1.7-1.5l-2.2-1.5l-3.1-2.5l-0.4-1l0.3-0.8l2.4-1.8
		l6.5-6.3l1.2-0.8l1.1,0l0.6,0.3l0,0.6l-1.1,0.8l-5.7,5.7l-2.8,2.4L72,96l1.8,1.2l1.5,1.2l0.8,0.8l0.4,1l-0.2,0.8l-0.6,0.6l-7.2,5.4
		l-1.2,1.1l7.4,2.1l0.6,0.4l0.2,0.6l-0.1,0.4l-0.5,0.3L74,111.9z"/>
	<path d="M72.8,118.7l-0.8-0.1l-5.1,0.6l-4.7,0l-0.1,2.8l2.2,0.1l2,1.2l0.5,0.5l0.7,1.1l0.5,1.2l0.1,0.9l-0.6,2.7l-0.6,1.3l-1,1.1
		l-1.2,1l-1.4,0.9l-0.9,0.4l-0.4,3.1l4.9,0.7l2.4,0l4.8,0.6l5.7,0.3l6.1,0.1l2.2-0.1l1.9,0.2l1.8-0.1l2.2,0.2l2.4-0.3l3.7,0
		l-0.1-5.4l1-11.3l-7,0.4l-3.7-0.2l-0.8-0.6l-0.3-1l-0.3-4.2l0.2-0.9l0.6-0.2l0.7,0.5l0.4,1l0.3,3.5l3.2,0.1l1.5-0.2l4-0.1l1.6-0.4
		l0.8,0l0.7,0.5l0.3,0.8l0,1.9l-1,10.3l0.1,5.8l-0.3,1l-0.9,0.5l-3.8,0l-3.2,0.3l-6.3-0.3l-2.1,0.1l-6.2,0l-5.7-0.3l-4.8-0.6l-2.6,0
		l-4.6-0.7l-0.9-0.5l-0.3-0.4l-0.3-1.2l0.6-4l0.8-0.7l1.2-0.5l1.2-0.8l1.2-1.1l0.8-1.2l0.4-1.9l-0.1-0.7l-0.2-0.5l-1.2-1.4l-1.3-0.5
		l-2.2,0l-0.7-0.4l-0.3-1l0.1-3.7l0.2-0.8l0.6-0.5l0.7-0.2l4.7,0l5-0.6l1.9,0.1l1-5.7l0.5-0.5l0.5,0l0.4,0.3l0.1,2.3l-0.8,4.8
		l-0.7,0.7L72.8,118.7z"/>
	<path d="M86.5,83.9l3.8,0.4l0.4,0.3l0.2,0.6l-0.1,0.4L90.2,86L89,86l-3.2-0.3l-2.9,0l-2.3-0.3l-3.3,0.1l-0.4-0.3l-0.2-0.4l0.1-0.4
		l0.5-0.4l0.9-0.2l2.8-0.1l2.4,0.2L86.5,83.9z"/>
	<path d="M165.8,86.9l2.2-0.1l2.1,0.2l0.9,0.5l0.6,0.7l2,3l3.2,3.5l0.5,1.2l-0.4,0.9l-1.9,1.3l-5.5,4.4l5.1,4.1l2.2,2.7l0.3,0.8
		l-0.2,0.8l-0.8,0.7l-3,1.7l-3.6,2.7l-2.1,1.1l-0.6,0l-0.5-0.3l-0.2-0.6l0.2-0.6l3-1.8l3.7-2.8l2-1.1l-2.3-2.6l-2.3-1.7l-2.6-2.2
		l-0.4-1l0.2-0.6l0.6-0.7l7-5.5l-3-3.3l-2.4-3.5l-2.3-0.3l-4.2,0.2l-4.2-0.1l-0.9-0.1l-0.4-0.3l-0.2-0.5l0.1-0.5l0.6-0.4L165.8,86.9
		z"/>
	<path d="M167.4,116.5l1.5,3.2l0.1,2.3l-0.2,0.7l-0.4,0.3l-0.6,0l-0.5-0.3l-0.3-0.7l-0.3-2.9l-0.7-2.6l0.4-0.3l0.5,0L167.4,116.5z"
		/>
	<path d="M157.6,87.6l0.4,1l0.1,0.9l0,6.1l-0.9,5.5l-0.1,4.6l-0.6,3.4l-0.5,7.5l-0.5,3.8l-0.2,0.6l-0.5,0.4l-0.6,0l-0.7-0.3l0-0.6
		l0.5-3.8l0.5-7.3l0.6-3.7l0.1-4.6l0.9-5.3l0.1-7.6l0.2-0.6l0.4-0.3l0.5,0L157.6,87.6z"/>
	<path d="M150.4,123.3l-5.7-0.2l-0.5-0.3l-0.1-0.4l0.2-0.5l0.7-0.5l6.4,0.1l2.2-0.3l1-0.2h0.7l-0.5,1.8l-0.3,0.3l-0.5,0.1l-2.1,0.2
		L150.4,123.3z"/>
	<path d="M145.8,123.2l0.2,0.9l-0.1,7l0.2,2.3l-0.1,4.1l-0.4,2.2l-0.5,0.4l-0.6,0l-0.5-0.3l-0.2-0.7l0.3-5.2l-0.2-2.5l0.1-6.2
		l0.2-2.5l0.7,0.6l0.5,0L145.8,123.2z"/>
	<path d="M176.6,121.9l0.4,1.2l-0.1,2.7l-0.3,1l-0.6,0.5l-1.4,0.5l-1.8,0.9l-0.6,0.3l-0.5,0.6l0.2,1.7l0.7,2.6l0.2,0.3l0.4,0.1
		l1.6-0.1l0.7,0.4l0.3,0.7l-0.3,4.1l-0.3,0.8l-0.5,0.4l-6.5,0.7l-5.3,0.1l-7.5,0.5l-6.7-0.7l-3.7-0.6l-0.5-0.3l-0.2-0.4l0.1-0.4
		l0.7-0.4l10.8,1l6.4-0.5l5.2-0.1l5.9-0.7l0.3-2.7l-1.4,0l-0.9-0.5l-0.4-0.5l-1-3.3l-0.3-2.2l0.3-1.2l0.6-0.7l2.1-1.4l2.1-0.9l0-2
		l-3.4,0.2l-3.3-0.2l-0.9-0.4l-0.2-0.5l0-0.7l0.8-0.2l4,0.2l3.8-0.4L176.6,121.9z"/>
	<path d="M111.5,44.9l1-22l0-0.7l0.1-0.4l0.5-0.3l0.5,0l0.4,0.3l0.6,1.3l-1.1,22.2L111.5,44.9z"/>
	<path d="M111.5,44.9"/>
	<path d="M111.3,48.8"/>
	<path d="M113.3,49l-1.6,34.2l-0.7,8.9l-0.4,2.1l0.2,2.8l-0.7,6l0.1,7.6l-1,9.6l0.2,5.3l-0.3,2.5l0,3.3l-0.3,5l-0.3,1.9l-0.7,5.2
		l-0.5,0.4l-0.6,0l-0.5-0.3l0.3-3.4v-1.9l0.3-1.8l0.3-5l0-3.3l0.3-2.5l-0.3-5.1l1-9.8l-0.1-7.6l0.7-6l-0.2-2.8l0.4-2.1l0.1-2.7
		l0.5-3.7l0.2-2.9l1.6-34.1L113.3,49z"/>
	<path d="M113.3,49"/>
	<path d="M113.5,45.1"/>
	<path d="M132.6,144.9l-4.7,0.2l-3.3,0.4l-3,0.1l-9.8-0.5l-2.5,0.1l-2.2-0.5l-0.9-0.6l0.2-1.4l3.4,0.6l2.7-0.1l11.3,0.4l3.2-0.4
		l6.8-0.3l4.5-0.5l0.7,0.4l0.2,0.6l-0.2,0.6l-0.5,0.4l-4,0.4"/>
	<path d="M141.6,49.8L140.2,85l-0.2,2.6l0.1,5.4l0.3,4.4l-0.4,9.9l0.3,3.8l-0.5,5.1l0.1,1.8l-0.1,2.7l0.5,9.7l-0.8,12.3l-0.2,0.6
		l-0.5,0.4l-0.6,0l-0.5-0.3l-0.2-0.6l0.8-12.5l-0.5-9.7l0.1-2.2l-0.1-2.5l0.5-4.6l-0.3-3.8l0.4-9.1l-0.3-5.2l-0.1-6.1l0.4-3.9
		l1.3-33.2L141.6,49.8z"/>
	<path d="M139.8,46.3l0.9-23.5l0.7-0.7l0.6,0l0.5,0.3l0.2,0.5l-0.9,23.5L139.8,46.3z"/>
	<path d="M142,21.1l0.2,0.6l-0.2,0.6l-0.5,0.4l-1.7,0.4l-8.7,3.1l-3.1,1.3l-3.2,1.5l-1.5,0.5L122,30l-0.8,0.1l-0.5-0.3l-0.3-0.8
		l0.2-0.8l3.2-5.4l0.7-2.4l-3.1,0.7l-4.3,0.6l-2.6,0.7l-1.9,0l-0.3-0.2l-0.2-0.5l0.2-0.5l0.9-0.5l3.4-0.8l5.8-1l3.1-0.9l0.8,0
		l0.5,0.3l0.2,0.6l-0.2,0.8l-0.6,1.3l-0.7,2.6l-2.2,3.6l5.6-2.5l10.1-3.6l1.3-0.3l0.9-0.1L142,21.1z"/>
	<path d="M40.4,155.5l-4.2,2.4l-4.7,3.3l-3.6,3.6l-1.9,3l-1.1,2l-0.7,0.5l-0.5,0l-0.4-0.3l-0.2-0.6l0.3-0.9l1.5-2.6l1.6-2.3l3.1-3.2
		l3.2-2.4l4.7-3.1l2-1.1l4.4-1.8l2.4-0.8l6.1-2.4l7.5-2.4l10.3-2.6l14-2.2l4.3-0.5l4.7,0l2.6,0l0.8,0.5l0.1,1.2l-1.2,0.1l-4.6,0.2
		l-2-0.1l-7.8,1l-4.5,0.8l-5.8,0.9l-2.4,0.7l-7,1.6l-8.1,2.6l-6.3,2.5l-2.2,0.7"/>
	<path d="M224,163.1l-2.6-2.9l-2-1.5l-5.7-3.7l-4.9-2.4l-6-2.4l-1.8-0.5l-3.7-0.7l-4.1-1.3l-7.5-2l-7.2-1.7l-7.9-1.1l-2.9-0.6
		l-4.1-0.5l-1.3-0.7l-0.2-0.5l0.1-0.4l0.3-0.3l0.4,0l5,0.5l3.6,0.7l7.6,1l10,2.4l5,1.3l4.1,1.3l4.1,0.8l2.2,0.7l4.1,1.7l6.7,3.3
		l6.3,4.2l2.4,2.2l2,2.4l0.2,0.8l-0.2,0.6l-0.6,0.5"/>
	<path d="M95.5,141.2l2.8,0.6l0.7,0.3l1,0.8l0.4,0.9l0,0.8l-0.6,1.9l-1.3,2.2l1.3,0.8l0.6,0.7l0.5,1.6l-0.2,1.6l2.3,0.4l1.5,0.1
		l0.7,0.5l0.2,0.4l-2.1,1l-2.8-0.4l-1.3-0.7l-0.5-1.2l0.3-1.4l-0.1-0.7l-0.4-0.5l-1.4-0.8l-0.3-0.4l-0.2-0.8l0.3-1l1.1-1.8l0.6-1.8
		l-0.3-0.5l-1.8-0.9"/>
	<path d="M145.2,139.4l0.4,0.2l0.2,0.5l-0.1,0.5l-4.4,4.1l-1.4,1.9l0.2,3.1l-0.2,1l-0.7,0.7l-1.1,0.6l0.7,0.8l0.3,0.8l0,0.4l-0.3,1
		l-0.9,1.1l-1.5,1.2l-2.6,1.2l-1.1,0.1l-0.4-0.3l-0.2-0.5l0.3-0.6l0.8-0.6l2.8-1.3l1.2-1.4l-0.9-1l-0.4-1l0.4-1l1.9-1.1l-0.2-3
		l0.4-1.4l1.8-2.2l4.4-3.8L145.2,139.4z"/>
	<path d="M97.9,158.8l-3.2,0.3l-9.8,1.5l-4,0.8l-8.9,2.7l-4.4,1.9l-5.7,2l-3,1.4l-8.4,4.7l-2.2,2.7l-1.1,1l-0.9,0.1l-0.4-0.3
		l-0.2-0.5l0.3-0.8l2.7-3.1l1.7-1.3l9.4-5.1l2.7-1.1l4.4-1.5l4.4-1.9l8.9-2.7l4-0.8l9.8-1.5l6.7-0.6L97.9,158.8z"/>
	<path d="M139.7,158l16.2,0.7l2.9,0.4l7.7,0.6l6.6,1.1l8.9,2.2l7.5,1.6l6.5,1.8l11.3,2.8l4.7,1.6l2.5,1.1l3.7,1.2l1.5,0.9l0.2,0.5
		l-0.2,0.6l-0.5,0.4l-0.6,0l-1.3-0.7l-3.7-1.2l-2.3-1.1l-6.3-2l-9.7-2.3l-6.5-1.8l-7.2-1.5l-5.2-1.4l-5.3-1.1l-5.2-0.8l-8-0.6
		l-2.7-0.4l-16-0.8l-5.8,0l-0.4-0.3l-0.2-0.4l0.1-0.4l0.5-0.3l1.3-0.2L139.7,158z"/>
	<path d="M175.5,120.9l0.3,0.6l-0.1,0.3l-0.6,0.2l-0.4-0.5l0-0.6l0.2-0.2L175.5,120.9z"/>
	<path d="M197.5,147.5l-0.9-0.3l-0.1-0.4l0.1-0.4l1.4-2l1-1.7l0.4-1.1l0-2.3l-0.1-0.5l-0.6-1l-3.3-4.8l-0.8-0.7l-3.4-1.3l-1.9-1.2
		l-1.7-2.3l-1.6-3.3l-1.6-1.8l-0.8-0.7l-1-0.3l-2.9-0.3l-2.7,0.7l-2.1,1.1l-0.6,0.1l-0.4-0.2l-0.2-0.4l0.2-0.6l0.6-0.7l1.5-1
		l2.9-0.9l1.4,0l2.7,0.3l0.8,0.2l1.8,1.3l1.6,1.8l0.6,0.9l1.2,2.6l1.7,2.3l1.1,0.6l3.1,1.2l1.9,1.4l3.8,5.6l0.5,1.4l0.2,1.3l0,1.4
		l-0.3,1.1l-1.3,2.7l-1,0.8L197.5,147.5z"/>
	<path d="M39.5,155.4l-1.6-1.3l-1-1.7l-0.5-1.7l0-1.3l0.3-1.2l1.3-2.6l1.1-1.4l1.3-1l2.5-1.3l2.2-2l0.5-0.6l0.8-2.4l0.4-1.8l0-2.5
		l0.4-2.4l0.7-2.6l0.5-1.1l1.1-1.6l1.2-1.2L53,122l3.4-1.8l1.6-0.5l1.2,0l0.8,0.6l0.3,1l-0.3,0.5l-0.3,0l-0.9-0.5L57,122l-4.6,2.7
		l-1.1,1.1l-1.2,1.8l-0.5,1.3l-0.4,1.6l-0.3,2l0,2.1l-0.3,1.6l-1.3,4.3l-0.6,0.7l-2.9,2.5l-3,1.6l-1.1,1.4l-1.2,2.5l0.1,2.2l0.7,1.1
		l0.8,1l1.4,0.5L39.5,155.4z"/>
	<path d="M141.3,158.4l1.1,0.1l0.7,0.4l0.2,0.5l-0.2,0.5l-1.3,0l-3.5,0.1l-4.3-0.1l-0.7-0.2l-2.6-1.3l-1.5-1l-1.1-1.1l-1-1.5l-2-2.2
		l-1.8-1.4l-2.1-1.1l-3-0.4l-3.4,0.5l-1,0.3l-8.3,4.6l-2.1,1.5l-5.4,2.3l-0.6,0.2l-1.2,0l-1-0.5l-0.1-0.3l0.3-0.5l1.8-0.4l5.6-2.6
		l2.3-1.6l8-4.5l2.7-0.6l2.9-0.2l1.4,0.1l1.9,0.4l3.1,1.8l1.6,1.3l2,2.2l1,1.5l0.9,0.9l0.5,0.4l2.3,1.2l1.1,0.4l3.9,0.4L141.3,158.4
		z"/>
	<path d="M106.1,88.8l2.3,0.1l0.5,0.3l0.2,0.6l-0.2,0.6l-0.5,0.4l-5.1,0l-2.7-0.2l-4.4-0.7l-1.6-0.5l-0.6-0.4L94,88.5l0.1-0.5
		l0.4-0.3l1-0.1l6,1.1L106.1,88.8z"/>
	<path d="M93.3,98.2c-0.7-0.8,0.8-5.4,0.8-5.4l0.1-2.5l0.3-0.9l0.4-0.3l0.5,0l0.4,0.3l0.2,0.5l0.1,1.4l-0.1,1.6c0,0-0.7,2.9-0.7,3.9
		C95.1,98.2,93.6,98.5,93.3,98.2z"/>
	<path d="M94.2,110c0.3,0.2,0.4,4.4,0.4,4.4l1.2,2.1l0.4,0.2l0.9,0.1l2.8-0.3l3.3-0.1l0.5,0.2l0.7,0.5l0.2,0.7l-0.1,0.4l-0.3,0.2
		l-1.3-0.2l-5,0.5l-1.9,0l-0.7-0.2l-0.8-0.6l-1.2-2.1l-0.5-1.3c0,0-0.9-3.6-0.2-4.4C92.8,109.7,93.5,109.5,94.2,110z"/>
	<path d="M142.4,120.5l-1.9-0.1l-1-0.5l-0.2-0.5l0.1-0.5l0.4-0.3l0.9-0.1l2.5,0.1l3.7-0.6l0.5-0.3l1.3-2.2l1.7-6.3l0.2-2.8l0.6-3.4
		l0.2-5.5l0.4-2.8l0.4-1.3l-3.6-0.2l-5-0.7l-2.9-0.1l-0.3,0.3l-0.3,0l-1.3-0.6l-0.2-0.5l0.1-0.5l0.4-0.3l0.6-0.1l4.4,0l4.8,0.6
		l4.5,0.3l0.7,0.4l0.3,0.7l-0.6,1.8l-0.4,2.6l-0.2,6l-0.6,3.1l-0.3,3l-2,7.2l-1.3,2.2l-1.2,0.9l-2.5,0.5L142.4,120.5z"/>
	<path d="M102.7,65.6l-1.6,0l-1.8-0.3L96.6,65l-4.3-0.5l-11.6-0.3l-4.3-0.6l-4.1-0.1l-0.8-0.1L71,62.9l0.1-0.3l0.4-0.4l0.9-0.3
		l4.1-0.2l4.4,0.5l1.3,0l10.3,0.2l4.5,0.6l2.7,0.1l1.8,0.3l5,0.1l0.5,0.1l0.7,0.4l0.3,0.7l-0.2,0.7L102.7,65.6z"/>
	<path d="M108.2,66.9l0.1,3.4l-0.6,3.5l-0.1,2.4l-0.2,0.8l-0.5,0.4l-0.8,0.1l-0.7-0.2l-4.6,0.2l-4,0.4l-4.1-0.7l-7.1,0l-13.4,1.6
		l-0.8-0.4l-0.2-0.5l0.1-0.5l0.8-0.5l12.2-1.5l8.9-0.1l4,0.7l2.8-0.3l5.5-0.2l0.1-1.7l0.6-3.1l0.2-3.6l-0.3-1.5l1.3,0.1l0.6-0.1"/>
	<path d="M72.8,77.3l0.4,0.3l0.2,0.6l-0.1,0.4l-0.5,0.2l-0.9,1.4l-1.5,2l-1,1.1l-6.9,6.6l-1.8,2.2l3.8,3.5l3.2,2.5l0.4,0.5l0.3,0.8
		l-0.3,0.8l-2.1,1.5l-3.8,4.1l1.6,2.4l1.1,2.3l0.1,0.9l-0.2,0.9l-0.3,0.2l-0.4,0l-0.7-0.6l-1.6-2.9l-1.4-2.1l-0.4-1.2l0.4-1l3.8-4.1
		l1.7-1.4l-3.1-2.5l-3.8-3.5l-0.5-0.9l0-0.5l0.3-0.8l1.6-2L68,82l1.6-2l1.5-2.2l0.7-0.6L72.8,77.3z"/>
	<path d="M69,63.3c-0.9-0.1-3.5,0.2-3.5,0.2l-10,0.5l0,1.8l-0.7,7.8l0.2,3.2l-0.1,4.4l0.2,3.1L54.6,91l-0.7,4.6l-1.4,7l-0.2,2.2
		l0.2,5.5l4,0.1l7.3-0.4l0.8,0.5l0.2,0.5l-0.1,0.6l-0.4,0.3l-0.8,0.2l-0.4,0l-0.3-0.2l-6.7,0.3l-5-0.1l-0.7-0.5l-0.2-0.6l0.2-1.5
		l-0.2-5.3l0.2-1.8l1.4-7l0.7-4.6l0.4-6.6l-0.2-3.1l0.1-4.4l-0.2-3.2l0.7-8l0-2.3l0.2-0.8l0.9-0.5L67,61.6l3-0.3l2.6,0.7l-0.8,0.6
		c0,0,0.1,0.6-0.2,0.8C71.2,63.6,69.4,63.4,69,63.3z"/>
	<path d="M158.2,66.6l4.4,0.4l6.5,0.3l9.1,0.9l6.8,0.3l3,0.6l7.1,0.3l0.5,0.3l0.2,0.6l-0.2,0.6l-0.5,0.4l-0.6,0l-7.1-0.2l-3.2-0.6
		l-6.6-0.2l-8.8-0.9l-7-0.4l-3.4-0.4l-6.8,0.2l-0.3,0.3l-0.3,0l-0.8-0.5L150,68l0.2-0.6l0.6-0.5L158.2,66.6z"/>
	<path d="M152.5,80.2l5,0l3.1,0.2l2.3-0.2l4.4,0.2l7.4,0l1.1,0.4l1,0.6l1.7,1.6l2.2,1.4l1.3,1.6l4.8,4.7l2.4,3l0.3,0.8l-0.3,1
		l-1.3,1.5l-1.8,3.1l-3.6,3.8l1.8,1.5l3,2l0.4,0.5l0.3,0.8l-0.5,1.2l-2.3,1.9l-1.5,1.8l8.2-0.8l0.3-0.1l0.5-6.3l0.9-4l0.6-7.2
		l0.1-2.7l-0.1-4.7l0.4-13.2l-0.1-4.2l0.2-0.9l0.5-0.4l0.4,0l0.5,0.3l0.3,1.4l0.1,2.9L195.9,88l0.1,4.7l-0.1,2.7l-0.6,7.2l-0.9,4.2
		l-0.5,6.2l-0.4,1.2l-1.1,0.7l-8.3,0.8l-2,0.4l-1,0l-0.7-0.4l-0.2-0.6l0.2-0.8l2.9-3.3l2.5-2.1l-3.1-2.1l-1.9-1.6l-0.5-1l0.2-0.8
		l0.5-0.8l3.2-3.3l2-3.3l1.2-1.3l-2.3-2.8l-4.6-4.5l-1.3-1.6l-2.2-1.4l-1.5-1.4l-1.5-0.5l-7.2,0.1l-4.3-0.2l-2.5,0.2l-3.8-0.3
		l-6.4,0.1l-0.6-0.2l-0.5-0.3l-0.4-1l1.5-7.5l-0.1-4.4l0.2-0.8l0.5-0.4l0.6,0l0.5,0.3l0.2,0.6l0.1,4.2l-1.5,7.6L152.5,80.2z"/>
	<path d="M214.2,70.5l2,0.1l0.7,0.4l0.2,0.6l-0.2,0.8l-6.6,7.2l-1,1.3l-0.9,0.7l-0.8,0l-0.7-0.5l-2.6-4.1l-2.3-3l-1.1-1.7l-0.2-0.6
		l0.2-0.8l0.7-0.5l2.6-0.5l2.6-0.1l0.1-1.7l-0.4-4.8l-0.1-7.3l0.2-0.5l0.4-0.3l0.5,0l0.1-0.7l0.5-0.4l5.4,0.2l0.4,0.1l0.7,0.5
		l0.2,0.8l-0.7,5.9l-0.7,4.8l0.1,4.1 M206,71.8l-2.9,0.3l2.6,3.4l2.3,3.6l6.1-6.8l-1.8-0.1l-0.5-0.3l-0.4-1l0-4.7l0.7-4.6l0.6-5.5
		l-4.6-0.2l0.2,1.1l0.1,6.2l0.4,4.4l0,2l-0.4,1.5l-0.6,0.6L206,71.8z"/>
	<path d="M47.9,49.2l0.3,1.6L47.9,54l0,5.4l0.7,7.5l-0.1,1l-0.3,1l-0.6,0.5l-0.4,0l-0.4-0.2l-0.2-0.8l0.1-2.1l-0.6-6.8l0-5.6
		l0.3-3.7l0.2-1l0.4-0.3l0.5,0L47.9,49.2z"/>
	<path d="M42.1,48.7l0.4,1.1l0.1,5.9l0.4,3.5L44,64l-0.3,3.2l-0.2,0.6l-0.5,0.4l-0.6,0l-0.5-0.3l-0.3-0.7l0.4-2.3l0-1l-1-4.2
		l-0.4-3.9l-0.1-5l0.1-1.3l0.2-0.7l0.4-0.3l0.5,0L42.1,48.7z"/>
	<path d="M40,67.8l-1.7,0.3l1.9,2.2l1.6,2.3l1.6,1.5l3.3-2.2l2.3-2.1l-1.9-0.3L46.4,69l-0.2-0.6l0.3-1.2l1.2-1l0.6,0.2l0.1,0.3
		l-0.3,1l2.9,0.5l0.5,0.3l0.2,0.6l-0.2,0.8l-1.6,1.8l-1.6,1.5L44.2,76l-1,0.1L42.7,76l-0.9-0.6l-1.2-1.1L38.2,71l-2.4-2.6l-0.2-0.6
		l0.2-0.6l0.6-0.6l2.9-0.8l1.3-0.1l0.8,0.1l0.1-0.4l0.2-0.2l0.6,0.2l0.1,0.3l0.1,0.8l-0.2,0.7l-0.7,0.5L40,67.8z"/>
	<path d="M46.6,50.4l-5.1-0.1L41,49.9l0-0.6v-0.5l0.6-0.4l4.2-0.1l1,0.2l0.3,2L46.6,50.4z"/>
	<path d="M92.6,109l-0.3-0.5l-0.5-1.8l-0.1-1.3l0.1-1.4l1.2-4.8l0.7-0.7l1.6-0.3l0.4,0.3l0.2,0.6l-1.4,2.3l-0.7,5l2.6,3.2l-0.7,0.1
		l-0.3,0.5l-2.3-0.9L92.6,109z"/>
	<path d="M108.9,95.7l0.2,0.6l0,1.5l0.4,1.1l-0.1,0.4l-0.4,0.3l-0.7-0.1l-0.6-0.5l-0.3-0.5l-1.2,1.2l-0.8,0l-0.7-0.5l-0.8-2.5
		l-2.2,2.5l-0.7,0.5l-0.6,0l-0.7-0.5l-1.1-2.8l-1.3,2l-1.2,1.4l-0.6,0.2l-0.3-0.2l-0.2-0.5l0.3-1.4l1.3-2.1l0.7-0.8l1-0.7l1,0
		l0.7,0.5l0.8,2.4l2.2-2.5l1-0.8l0.6,0l0.7,0.4L106,97l0.9-1.2l0.7-0.5l0.6,0L108.9,95.7z"/>
	<path d="M105.7,109.2l0.2,0.8l0.1,1.6l1.3-2.3l0.5-0.4l0.6,0l0.5,0.3l0.2,0.6l-0.8,2l-1.7,2.5l-0.7,0.4l-0.6,0l-0.5-0.3l-0.4-1
		l-0.3-1.2l-0.9,1.5l-0.5,1.6l-0.5,0.4l-0.6,0l-0.8-0.6l-0.5-1.2l-0.5-2l-1.7,2.1l-0.5,0.4l-0.6,0l-0.8-0.6l-0.8-2.4l0-1l0.1-0.4
		l0.4-0.3l0.5,0l0.5,0.4l0.7,1.6l1.9-2.1l0.7-0.5l0.6,0l0.7,0.4l0.6,2.6l1.4-2l1.1-1.1l0.8,0L105.7,109.2z"/>
</g>
</svg>
